<svg xmlns="http://www.w3.org/2000/svg" viewBox="90 400 235 270">
  <!-- Фон -->
  <rect x="90" y="400" width="235" height="270" rx="40" fill="#1A1614"/>
  <!-- Ромб (diamond mark из логотипа ROMBO) -->
  <g fill="#F4EDE0">
    <path d="M323.81,568.88l-116.78,93.23-116.81-93.23h72.32c3.29,0,6.48,1.12,9.05,3.17l35.44,28.28,39.38-31.44,38.7-30.9,38.7,30.9Z"/>
    <path d="M323.81,507.09l-38.7,30.88-38.68-30.88-30.36-24.24c-5.29-4.23-12.81-4.23-18.1,0l-30.36,24.24-38.7,30.88-38.7,30.9v-54.8c0-4.41,2.01-8.58,5.45-11.33l102.3-81.67c5.29-4.23,12.8-4.22,18.1,0l107.73,86.03Z"/>
  </g>
</svg>
